<?xml version="1.0" encoding="utf-8"?>
<!-- Generator: Adobe Illustrator 25.0.0, SVG Export Plug-In . SVG Version: 6.00 Build 0)  -->
<svg version="1.1" xmlns="http://www.w3.org/2000/svg" xmlns:xlink="http://www.w3.org/1999/xlink" x="0px" y="0px"
	 viewBox="0 0 160 160" style="enable-background:new 0 0 160 160;" xml:space="preserve">
<style type="text/css">
	.st0{display:none;}
	.st1{display:inline;fill:#FFDD00;}
	.st2{display:inline;}
	.st3{fill:#FFFFFF;}
</style>
<g id="Layer_2" class="st0">
	<path class="st1" d="M128,160H32c-17.7,0-32-14.3-32-32V32C0,14.3,14.3,0,32,0h96c17.7,0,32,14.3,32,32v96
		C160,145.7,145.7,160,128,160z"/>
	<g class="st2">
		<path class="st3" d="M81.9,75.1c-4.6,2-9.8,4.2-16.6,4.2c-2.8,0-5.6-0.4-8.4-1.2l4.7,48c0.2,2,1.1,3.9,2.6,5.2s3.4,2.1,5.4,2.1
			c0,0,6.6,0.3,8.8,0.3c2.4,0,9.5-0.3,9.5-0.3c2,0,4-0.8,5.4-2.1c1.5-1.4,2.4-3.2,2.6-5.2l5-53.1c-2.2-0.8-4.5-1.3-7-1.3
			C89.5,71.9,86,73.4,81.9,75.1z"/>
		<path d="M122.6,50.2c-1.3-7.5-1.9-9.4-9.1-12.2c-3.4-5.9-0.3-16.3-8.9-18.6c-8.1-4.1-66.1-7.7-59.8,8.5c8.6,9.6,39.1,7.3,51.5,5.8
			c5.1-1.7,2.2-8.6-2.8-6.8c-10.8,1-27.3,2.2-37.2-1.3c0-0.3,0.2-0.5,0.5-0.6c8.2-1.6,16.5-1.9,24.8-1.7c4.8,0.5,19.8,0.3,21.9,4.6
			c0.3,2.1,3.3,10.7,1.7,11.6c-17,2.6-34.4,2.3-51.4,0.2c-13.3-3.1-18.4-0.9-19.1,14.4c0.9,9.3,11.8,8.5,18.8,9.7
			c15.1,1.8,30.3,2.1,45.4,0.7c2.4-0.3,6.7-1.3,6.5,2.5c-1.9,18.8-3.9,37.7-5.8,56.6c0.3,12.2-5.4,13.7-16.3,13.9
			c-7.1-0.6-15.7,1.7-21.7-3.2c-4.9-6.2-3.1-15.3-4.6-22.7c-0.9-9.6-3.2-30.6-4.2-40c0.3-5.2-7-6-7.3-0.8c0.7,7.4,3,28,3.7,35.8
			c0.9,8.2,1.7,16.3,2.6,24.5c1.9,16.7,28.4,13.1,40.5,12.3c11.2-1.9,14.5-10.7,14.6-20.9c1.4-13.2,3.4-33.2,4.8-46.6
			c0,0,1.1-11.1,1.1-11.1C113.3,60.2,125,63.8,122.6,50.2z M42,54.2L42,54.2c0,0,0.1,0.1,0.1,0.1C42.1,54.3,42,54.2,42,54.2z
			 M42.2,54.5C42.3,54.6,42.3,54.7,42.2,54.5L42.2,54.5z M42.6,54.8L42.6,54.8L42.6,54.8C42.6,54.8,42.7,54.9,42.6,54.8
			C42.7,54.9,42.6,54.8,42.6,54.8z M114.7,54.3c-13.2,4.2-28.2,3.6-42.1,3.7c-10-0.8-20.8-0.6-30.3-3.6C42,54,41.8,53.5,41.8,53
			c0,0,0,0,0,0c0,0,0,0,0,0c-0.2-1.3,0.1-2.8,0.3-3.9c0.5-5.8,7-2.8,10.6-2.3c16.2,2.4,32.9,2.5,49.1,0.4c3.6,0.1,10.8-3.5,12.9,0
			C115.7,49.2,116.3,52.5,114.7,54.3L114.7,54.3z"/>
	</g>
</g>
<g id="Layer_1">
	<g>
		<path class="st3" d="M81.9,75.1c-4.6,2-9.8,4.2-16.6,4.2c-2.8,0-5.6-0.4-8.4-1.2l4.7,48c0.2,2,1.1,3.9,2.6,5.2s3.4,2.1,5.4,2.1
			c0,0,6.6,0.3,8.8,0.3c2.4,0,9.5-0.3,9.5-0.3c2,0,4-0.8,5.4-2.1c1.5-1.4,2.4-3.2,2.6-5.2l5-53.1c-2.2-0.8-4.5-1.3-7-1.3
			C89.5,71.9,86,73.4,81.9,75.1z"/>
		<path class="st3" d="M122.6,50.2c-1.3-7.5-1.9-9.4-9.1-12.2c-3.4-5.9-0.3-16.3-8.9-18.6c-8.1-4.1-66.1-7.7-59.8,8.5
			c8.6,9.6,39.1,7.3,51.5,5.8c5.1-1.7,2.2-8.6-2.8-6.8c-10.8,1-27.3,2.2-37.2-1.3c0-0.3,0.2-0.5,0.5-0.6c8.2-1.6,16.5-1.9,24.8-1.7
			c4.8,0.5,19.8,0.3,21.9,4.6c0.3,2.1,3.3,10.7,1.7,11.6c-17,2.6-34.4,2.3-51.4,0.2c-13.3-3.1-18.4-0.9-19.1,14.4
			c0.9,9.3,11.8,8.5,18.8,9.7c15.1,1.8,30.3,2.1,45.4,0.7c2.4-0.3,6.7-1.3,6.5,2.5c-1.9,18.8-3.9,37.7-5.8,56.6
			c0.3,12.2-5.4,13.7-16.3,13.9c-7.1-0.6-15.7,1.7-21.7-3.2c-4.9-6.2-3.1-15.3-4.6-22.7c-0.9-9.6-3.2-30.6-4.2-40
			c0.3-5.2-7-6-7.3-0.8c0.7,7.4,3,28,3.7,35.8c0.9,8.2,1.7,16.3,2.6,24.5c1.9,16.7,28.4,13.1,40.5,12.3
			c11.2-1.9,14.5-10.7,14.6-20.9c1.4-13.2,3.4-33.2,4.8-46.6c0,0,1.1-11.1,1.1-11.1C113.3,60.2,125,63.8,122.6,50.2z M42,54.2
			L42,54.2c0,0,0.1,0.1,0.1,0.1C42.1,54.3,42,54.2,42,54.2z M42.2,54.5C42.3,54.6,42.3,54.7,42.2,54.5L42.2,54.5z M42.6,54.8
			L42.6,54.8L42.6,54.8C42.6,54.8,42.7,54.9,42.6,54.8C42.7,54.9,42.6,54.8,42.6,54.8z M114.7,54.3c-13.2,4.2-28.2,3.6-42.1,3.7
			c-10-0.8-20.8-0.6-30.3-3.6C42,54,41.8,53.5,41.8,53c0,0,0,0,0,0c0,0,0,0,0,0c-0.2-1.3,0.1-2.8,0.3-3.9c0.5-5.8,7-2.8,10.6-2.3
			c16.2,2.4,32.9,2.5,49.1,0.4c3.6,0.1,10.8-3.5,12.9,0C115.7,49.2,116.3,52.5,114.7,54.3L114.7,54.3z"/>
	</g>
</g>
</svg>
