<?xml version="1.0" encoding="utf-8"?>
<!-- Generator: Adobe Illustrator 25.0.0, SVG Export Plug-In . SVG Version: 6.00 Build 0)  -->
<svg version="1.1" id="Layer_1" xmlns="http://www.w3.org/2000/svg" xmlns:xlink="http://www.w3.org/1999/xlink" x="0px" y="0px"
	 viewBox="0 0 24 24" style="enable-background:new 0 0 24 24;" xml:space="preserve">
<path d="M20.9,7.5c-0.5-3.1-3.8-4.8-6.6-3.3c-1,0.6-1.8,1.4-2.3,2.5c-0.6-1-1.3-1.9-2.3-2.5C6.9,2.7,3.6,4.4,3.1,7.5
	c-0.2,1.2,0.1,2.3,0.6,3.4c0.5,1.1,1.2,2.1,2,3c1.7,2,6.3,6.4,6.4,6.4c0,0,4.7-4.4,6.4-6.4c0.8-0.9,1.5-1.9,2-3
	C20.9,9.8,21.1,8.7,20.9,7.5z"/>
</svg>
